<?xml version="1.0" standalone="no"?>
<!DOCTYPE svg PUBLIC "-//W3C//DTD SVG 20010904//EN"
 "http://www.w3.org/TR/2001/REC-SVG-20010904/DTD/svg10.dtd">
<svg version="1.0" xmlns="http://www.w3.org/2000/svg"
 width="120.000000pt" height="120.000000pt" viewBox="0 0 120.000000 120.000000"
 preserveAspectRatio="xMidYMid meet">
<metadata>
Created by potrace 1.14, written by Peter Selinger 2001-2017
</metadata>
<g transform="translate(0.000000,120.000000) scale(0.100000,-0.100000)"
fill="#000000" stroke="none">
<path d="M493 1145 c-23 -6 -48 -16 -55 -23 -6 -6 -21 -12 -32 -12 -12 0 -30
-7 -40 -15 -10 -8 -23 -12 -27 -9 -5 3 -9 0 -9 -6 0 -6 -6 -10 -12 -9 -7 1
-30 -1 -50 -5 -40 -9 -48 -25 -23 -46 8 -7 15 -17 15 -22 0 -8 53 -63 100
-103 29 -25 104 -55 137 -55 18 0 33 -2 33 -5 0 -3 -25 -41 -55 -85 -30 -44
-55 -84 -55 -90 0 -13 -6 -13 -60 4 -105 31 -201 -9 -249 -102 -59 -116 -41
-250 44 -335 54 -54 99 -72 185 -72 65 0 82 4 129 30 36 20 56 26 58 18 11
-33 67 -95 108 -118 117 -69 238 -59 345 28 80 63 126 217 98 326 -12 47 -67
114 -112 138 -17 10 -59 18 -96 19 -74 3 -68 -10 -56 124 3 41 8 86 11 100 4
20 11 55 20 100 9 46 21 79 37 106 16 27 17 37 8 54 -9 16 -18 20 -36 16 -13
-4 -24 -2 -24 3 0 10 -30 23 -40 18 -3 -1 -19 7 -35 17 -24 16 -49 20 -125 21
-52 0 -114 -4 -137 -10z m288 -257 c-17 -80 -29 -180 -30 -250 -1 -38 -1 -38
-44 -38 -26 0 -63 -10 -90 -24 -38 -19 -49 -21 -58 -10 -6 7 -31 25 -55 39
-32 19 -41 29 -34 38 6 7 28 39 50 73 51 78 119 156 131 148 11 -7 89 36 89
50 0 5 3 6 7 3 3 -4 13 2 21 14 21 30 25 17 13 -43z"/>
</g>
</svg>
